<?xml version="1.0" encoding="utf-8" standalone="no"?>
<!DOCTYPE svg PUBLIC "-//W3C//DTD SVG 1.1//EN"
  "http://www.w3.org/Graphics/SVG/1.1/DTD/svg11.dtd">
<svg xmlns:xlink="http://www.w3.org/1999/xlink" width="397.6075pt" height="297.190125pt" viewBox="0 0 397.6075 297.190125" xmlns="http://www.w3.org/2000/svg" version="1.1">
 <metadata>
  <rdf:RDF xmlns:dc="http://purl.org/dc/elements/1.1/" xmlns:cc="http://creativecommons.org/ns#" xmlns:rdf="http://www.w3.org/1999/02/22-rdf-syntax-ns#">
   <cc:Work>
    <dc:type rdf:resource="http://purl.org/dc/dcmitype/StillImage"/>
    <dc:date>2023-03-25T15:50:24.135401</dc:date>
    <dc:format>image/svg+xml</dc:format>
    <dc:creator>
     <cc:Agent>
      <dc:title>Matplotlib v3.6.3, https://matplotlib.org/</dc:title>
     </cc:Agent>
    </dc:creator>
   </cc:Work>
  </rdf:RDF>
 </metadata>
 <defs>
  <style type="text/css">*{stroke-linejoin: round; stroke-linecap: butt}</style>
 </defs>
 <g id="figure_1">
  <g id="patch_1">
   <path d="M 0 297.190125 
L 397.6075 297.190125 
L 397.6075 0 
L 0 0 
z
" style="fill: #ffffff"/>
  </g>
  <g id="axes_1">
   <g id="patch_2">
    <path d="M 33.2875 273.312 
L 390.4075 273.312 
L 390.4075 7.2 
L 33.2875 7.2 
z
" style="fill: #ffffff"/>
   </g>
   <g id="patch_3">
    <path d="M 49.520227 273.312 
L 63.0475 273.312 
L 63.0475 260.203034 
L 49.520227 260.203034 
z
" clip-path="url(#p4a8ac6552d)" style="fill: #1f77b4"/>
   </g>
   <g id="patch_4">
    <path d="M 63.0475 273.312 
L 76.574773 273.312 
L 76.574773 271.127172 
L 63.0475 271.127172 
z
" clip-path="url(#p4a8ac6552d)" style="fill: #1f77b4"/>
   </g>
   <g id="patch_5">
    <path d="M 76.574773 273.312 
L 90.102045 273.312 
L 90.102045 266.757517 
L 76.574773 266.757517 
z
" clip-path="url(#p4a8ac6552d)" style="fill: #1f77b4"/>
   </g>
   <g id="patch_6">
    <path d="M 90.102045 273.312 
L 103.629318 273.312 
L 103.629318 266.757517 
L 90.102045 266.757517 
z
" clip-path="url(#p4a8ac6552d)" style="fill: #1f77b4"/>
   </g>
   <g id="patch_7">
    <path d="M 103.629318 273.312 
L 117.156591 273.312 
L 117.156591 255.833379 
L 103.629318 255.833379 
z
" clip-path="url(#p4a8ac6552d)" style="fill: #1f77b4"/>
   </g>
   <g id="patch_8">
    <path d="M 117.156591 273.312 
L 130.683864 273.312 
L 130.683864 236.169931 
L 117.156591 236.169931 
z
" clip-path="url(#p4a8ac6552d)" style="fill: #1f77b4"/>
   </g>
   <g id="patch_9">
    <path d="M 130.683864 273.312 
L 144.211136 273.312 
L 144.211136 148.776828 
L 130.683864 148.776828 
z
" clip-path="url(#p4a8ac6552d)" style="fill: #1f77b4"/>
   </g>
   <g id="patch_10">
    <path d="M 144.211136 273.312 
L 157.738409 273.312 
L 157.738409 153.146483 
L 144.211136 153.146483 
z
" clip-path="url(#p4a8ac6552d)" style="fill: #1f77b4"/>
   </g>
   <g id="patch_11">
    <path d="M 157.738409 273.312 
L 171.265682 273.312 
L 171.265682 57.014069 
L 157.738409 57.014069 
z
" clip-path="url(#p4a8ac6552d)" style="fill: #1f77b4"/>
   </g>
   <g id="patch_12">
    <path d="M 171.265682 273.312 
L 184.792955 273.312 
L 184.792955 24.241655 
L 171.265682 24.241655 
z
" clip-path="url(#p4a8ac6552d)" style="fill: #1f77b4"/>
   </g>
   <g id="patch_13">
    <path d="M 184.792955 273.312 
L 198.320227 273.312 
L 198.320227 19.872 
L 184.792955 19.872 
z
" clip-path="url(#p4a8ac6552d)" style="fill: #1f77b4"/>
   </g>
   <g id="patch_14">
    <path d="M 198.320227 273.312 
L 211.8475 273.312 
L 211.8475 72.307862 
L 198.320227 72.307862 
z
" clip-path="url(#p4a8ac6552d)" style="fill: #1f77b4"/>
   </g>
   <g id="patch_15">
    <path d="M 211.8475 273.312 
L 225.374773 273.312 
L 225.374773 61.383724 
L 211.8475 61.383724 
z
" clip-path="url(#p4a8ac6552d)" style="fill: #1f77b4"/>
   </g>
   <g id="patch_16">
    <path d="M 225.374773 273.312 
L 238.902045 273.312 
L 238.902045 50.459586 
L 225.374773 50.459586 
z
" clip-path="url(#p4a8ac6552d)" style="fill: #1f77b4"/>
   </g>
   <g id="patch_17">
    <path d="M 238.902045 273.312 
L 252.429318 273.312 
L 252.429318 41.720276 
L 238.902045 41.720276 
z
" clip-path="url(#p4a8ac6552d)" style="fill: #1f77b4"/>
   </g>
   <g id="patch_18">
    <path d="M 252.429318 273.312 
L 265.956591 273.312 
L 265.956591 85.416828 
L 252.429318 85.416828 
z
" clip-path="url(#p4a8ac6552d)" style="fill: #1f77b4"/>
   </g>
   <g id="patch_19">
    <path d="M 265.956591 273.312 
L 279.483864 273.312 
L 279.483864 137.85269 
L 265.956591 137.85269 
z
" clip-path="url(#p4a8ac6552d)" style="fill: #1f77b4"/>
   </g>
   <g id="patch_20">
    <path d="M 279.483864 273.312 
L 293.011136 273.312 
L 293.011136 155.33131 
L 279.483864 155.33131 
z
" clip-path="url(#p4a8ac6552d)" style="fill: #1f77b4"/>
   </g>
   <g id="patch_21">
    <path d="M 293.011136 273.312 
L 306.538409 273.312 
L 306.538409 150.961655 
L 293.011136 150.961655 
z
" clip-path="url(#p4a8ac6552d)" style="fill: #1f77b4"/>
   </g>
   <g id="patch_22">
    <path d="M 306.538409 273.312 
L 320.065682 273.312 
L 320.065682 172.809931 
L 306.538409 172.809931 
z
" clip-path="url(#p4a8ac6552d)" style="fill: #1f77b4"/>
   </g>
   <g id="patch_23">
    <path d="M 320.065682 273.312 
L 333.592955 273.312 
L 333.592955 168.440276 
L 320.065682 168.440276 
z
" clip-path="url(#p4a8ac6552d)" style="fill: #1f77b4"/>
   </g>
   <g id="patch_24">
    <path d="M 333.592955 273.312 
L 347.120227 273.312 
L 347.120227 209.952 
L 333.592955 209.952 
z
" clip-path="url(#p4a8ac6552d)" style="fill: #1f77b4"/>
   </g>
   <g id="patch_25">
    <path d="M 347.120227 273.312 
L 360.6475 273.312 
L 360.6475 238.354759 
L 347.120227 238.354759 
z
" clip-path="url(#p4a8ac6552d)" style="fill: #1f77b4"/>
   </g>
   <g id="patch_26">
    <path d="M 360.6475 273.312 
L 374.174773 273.312 
L 374.174773 247.094069 
L 360.6475 247.094069 
z
" clip-path="url(#p4a8ac6552d)" style="fill: #1f77b4"/>
   </g>
   <g id="patch_27">
    <path d="M 49.520227 273.312 
L 63.0475 273.312 
L 63.0475 264.57269 
L 49.520227 264.57269 
z
" clip-path="url(#p4a8ac6552d)" style="fill: #ff7f0e"/>
   </g>
   <g id="patch_28">
    <path d="M 63.0475 273.312 
L 76.574773 273.312 
L 76.574773 273.312 
L 63.0475 273.312 
z
" clip-path="url(#p4a8ac6552d)" style="fill: #ff7f0e"/>
   </g>
   <g id="patch_29">
    <path d="M 76.574773 273.312 
L 90.102045 273.312 
L 90.102045 273.312 
L 76.574773 273.312 
z
" clip-path="url(#p4a8ac6552d)" style="fill: #ff7f0e"/>
   </g>
   <g id="patch_30">
    <path d="M 90.102045 273.312 
L 103.629318 273.312 
L 103.629318 273.312 
L 90.102045 273.312 
z
" clip-path="url(#p4a8ac6552d)" style="fill: #ff7f0e"/>
   </g>
   <g id="patch_31">
    <path d="M 103.629318 273.312 
L 117.156591 273.312 
L 117.156591 266.757517 
L 103.629318 266.757517 
z
" clip-path="url(#p4a8ac6552d)" style="fill: #ff7f0e"/>
   </g>
   <g id="patch_32">
    <path d="M 117.156591 273.312 
L 130.683864 273.312 
L 130.683864 273.312 
L 117.156591 273.312 
z
" clip-path="url(#p4a8ac6552d)" style="fill: #ff7f0e"/>
   </g>
   <g id="patch_33">
    <path d="M 130.683864 273.312 
L 144.211136 273.312 
L 144.211136 264.57269 
L 130.683864 264.57269 
z
" clip-path="url(#p4a8ac6552d)" style="fill: #ff7f0e"/>
   </g>
   <g id="patch_34">
    <path d="M 144.211136 273.312 
L 157.738409 273.312 
L 157.738409 255.833379 
L 144.211136 255.833379 
z
" clip-path="url(#p4a8ac6552d)" style="fill: #ff7f0e"/>
   </g>
   <g id="patch_35">
    <path d="M 157.738409 273.312 
L 171.265682 273.312 
L 171.265682 216.506483 
L 157.738409 216.506483 
z
" clip-path="url(#p4a8ac6552d)" style="fill: #ff7f0e"/>
   </g>
   <g id="patch_36">
    <path d="M 171.265682 273.312 
L 184.792955 273.312 
L 184.792955 209.952 
L 171.265682 209.952 
z
" clip-path="url(#p4a8ac6552d)" style="fill: #ff7f0e"/>
   </g>
   <g id="patch_37">
    <path d="M 184.792955 273.312 
L 198.320227 273.312 
L 198.320227 205.582345 
L 184.792955 205.582345 
z
" clip-path="url(#p4a8ac6552d)" style="fill: #ff7f0e"/>
   </g>
   <g id="patch_38">
    <path d="M 198.320227 273.312 
L 211.8475 273.312 
L 211.8475 203.397517 
L 198.320227 203.397517 
z
" clip-path="url(#p4a8ac6552d)" style="fill: #ff7f0e"/>
   </g>
   <g id="patch_39">
    <path d="M 211.8475 273.312 
L 225.374773 273.312 
L 225.374773 220.876138 
L 211.8475 220.876138 
z
" clip-path="url(#p4a8ac6552d)" style="fill: #ff7f0e"/>
   </g>
   <g id="patch_40">
    <path d="M 225.374773 273.312 
L 238.902045 273.312 
L 238.902045 207.767172 
L 225.374773 207.767172 
z
" clip-path="url(#p4a8ac6552d)" style="fill: #ff7f0e"/>
   </g>
   <g id="patch_41">
    <path d="M 238.902045 273.312 
L 252.429318 273.312 
L 252.429318 220.876138 
L 238.902045 220.876138 
z
" clip-path="url(#p4a8ac6552d)" style="fill: #ff7f0e"/>
   </g>
   <g id="patch_42">
    <path d="M 252.429318 273.312 
L 265.956591 273.312 
L 265.956591 225.245793 
L 252.429318 225.245793 
z
" clip-path="url(#p4a8ac6552d)" style="fill: #ff7f0e"/>
   </g>
   <g id="patch_43">
    <path d="M 265.956591 273.312 
L 279.483864 273.312 
L 279.483864 231.800276 
L 265.956591 231.800276 
z
" clip-path="url(#p4a8ac6552d)" style="fill: #ff7f0e"/>
   </g>
   <g id="patch_44">
    <path d="M 279.483864 273.312 
L 293.011136 273.312 
L 293.011136 209.952 
L 279.483864 209.952 
z
" clip-path="url(#p4a8ac6552d)" style="fill: #ff7f0e"/>
   </g>
   <g id="patch_45">
    <path d="M 293.011136 273.312 
L 306.538409 273.312 
L 306.538409 244.909241 
L 293.011136 244.909241 
z
" clip-path="url(#p4a8ac6552d)" style="fill: #ff7f0e"/>
   </g>
   <g id="patch_46">
    <path d="M 306.538409 273.312 
L 320.065682 273.312 
L 320.065682 244.909241 
L 306.538409 244.909241 
z
" clip-path="url(#p4a8ac6552d)" style="fill: #ff7f0e"/>
   </g>
   <g id="patch_47">
    <path d="M 320.065682 273.312 
L 333.592955 273.312 
L 333.592955 233.985103 
L 320.065682 233.985103 
z
" clip-path="url(#p4a8ac6552d)" style="fill: #ff7f0e"/>
   </g>
   <g id="patch_48">
    <path d="M 333.592955 273.312 
L 347.120227 273.312 
L 347.120227 255.833379 
L 333.592955 255.833379 
z
" clip-path="url(#p4a8ac6552d)" style="fill: #ff7f0e"/>
   </g>
   <g id="patch_49">
    <path d="M 347.120227 273.312 
L 360.6475 273.312 
L 360.6475 249.278897 
L 347.120227 249.278897 
z
" clip-path="url(#p4a8ac6552d)" style="fill: #ff7f0e"/>
   </g>
   <g id="patch_50">
    <path d="M 360.6475 273.312 
L 374.174773 273.312 
L 374.174773 268.942345 
L 360.6475 268.942345 
z
" clip-path="url(#p4a8ac6552d)" style="fill: #ff7f0e"/>
   </g>
   <g id="matplotlib.axis_1">
    <g id="xtick_1">
     <g id="line2d_1">
      <defs>
       <path id="m8ed3292d2a" d="M 0 0 
L 0 3.5 
" style="stroke: #000000; stroke-width: 0.8"/>
      </defs>
      <g>
       <use xlink:href="#m8ed3292d2a" x="49.520227" y="273.312" style="stroke: #000000; stroke-width: 0.8"/>
      </g>
     </g>
     <g id="text_1">
      <!-- 0 -->
      <g transform="translate(46.338977 287.910437) scale(0.1 -0.1)">
       <defs>
        <path id="DejaVuSans-30" d="M 2034 4250 
Q 1547 4250 1301 3770 
Q 1056 3291 1056 2328 
Q 1056 1369 1301 889 
Q 1547 409 2034 409 
Q 2525 409 2770 889 
Q 3016 1369 3016 2328 
Q 3016 3291 2770 3770 
Q 2525 4250 2034 4250 
z
M 2034 4750 
Q 2819 4750 3233 4129 
Q 3647 3509 3647 2328 
Q 3647 1150 3233 529 
Q 2819 -91 2034 -91 
Q 1250 -91 836 529 
Q 422 1150 422 2328 
Q 422 3509 836 4129 
Q 1250 4750 2034 4750 
z
" transform="scale(0.015625)"/>
       </defs>
       <use xlink:href="#DejaVuSans-30"/>
      </g>
     </g>
    </g>
    <g id="xtick_2">
     <g id="line2d_2">
      <g>
       <use xlink:href="#m8ed3292d2a" x="120.097302" y="273.312" style="stroke: #000000; stroke-width: 0.8"/>
      </g>
     </g>
     <g id="text_2">
      <!-- 5 -->
      <g transform="translate(116.916052 287.910437) scale(0.1 -0.1)">
       <defs>
        <path id="DejaVuSans-35" d="M 691 4666 
L 3169 4666 
L 3169 4134 
L 1269 4134 
L 1269 2991 
Q 1406 3038 1543 3061 
Q 1681 3084 1819 3084 
Q 2600 3084 3056 2656 
Q 3513 2228 3513 1497 
Q 3513 744 3044 326 
Q 2575 -91 1722 -91 
Q 1428 -91 1123 -41 
Q 819 9 494 109 
L 494 744 
Q 775 591 1075 516 
Q 1375 441 1709 441 
Q 2250 441 2565 725 
Q 2881 1009 2881 1497 
Q 2881 1984 2565 2268 
Q 2250 2553 1709 2553 
Q 1456 2553 1204 2497 
Q 953 2441 691 2322 
L 691 4666 
z
" transform="scale(0.015625)"/>
       </defs>
       <use xlink:href="#DejaVuSans-35"/>
      </g>
     </g>
    </g>
    <g id="xtick_3">
     <g id="line2d_3">
      <g>
       <use xlink:href="#m8ed3292d2a" x="190.674377" y="273.312" style="stroke: #000000; stroke-width: 0.8"/>
      </g>
     </g>
     <g id="text_3">
      <!-- 10 -->
      <g transform="translate(184.311877 287.910437) scale(0.1 -0.1)">
       <defs>
        <path id="DejaVuSans-31" d="M 794 531 
L 1825 531 
L 1825 4091 
L 703 3866 
L 703 4441 
L 1819 4666 
L 2450 4666 
L 2450 531 
L 3481 531 
L 3481 0 
L 794 0 
L 794 531 
z
" transform="scale(0.015625)"/>
       </defs>
       <use xlink:href="#DejaVuSans-31"/>
       <use xlink:href="#DejaVuSans-30" x="63.623047"/>
      </g>
     </g>
    </g>
    <g id="xtick_4">
     <g id="line2d_4">
      <g>
       <use xlink:href="#m8ed3292d2a" x="261.251453" y="273.312" style="stroke: #000000; stroke-width: 0.8"/>
      </g>
     </g>
     <g id="text_4">
      <!-- 15 -->
      <g transform="translate(254.888953 287.910437) scale(0.1 -0.1)">
       <use xlink:href="#DejaVuSans-31"/>
       <use xlink:href="#DejaVuSans-35" x="63.623047"/>
      </g>
     </g>
    </g>
    <g id="xtick_5">
     <g id="line2d_5">
      <g>
       <use xlink:href="#m8ed3292d2a" x="331.828528" y="273.312" style="stroke: #000000; stroke-width: 0.8"/>
      </g>
     </g>
     <g id="text_5">
      <!-- 20 -->
      <g transform="translate(325.466028 287.910437) scale(0.1 -0.1)">
       <defs>
        <path id="DejaVuSans-32" d="M 1228 531 
L 3431 531 
L 3431 0 
L 469 0 
L 469 531 
Q 828 903 1448 1529 
Q 2069 2156 2228 2338 
Q 2531 2678 2651 2914 
Q 2772 3150 2772 3378 
Q 2772 3750 2511 3984 
Q 2250 4219 1831 4219 
Q 1534 4219 1204 4116 
Q 875 4013 500 3803 
L 500 4441 
Q 881 4594 1212 4672 
Q 1544 4750 1819 4750 
Q 2544 4750 2975 4387 
Q 3406 4025 3406 3419 
Q 3406 3131 3298 2873 
Q 3191 2616 2906 2266 
Q 2828 2175 2409 1742 
Q 1991 1309 1228 531 
z
" transform="scale(0.015625)"/>
       </defs>
       <use xlink:href="#DejaVuSans-32"/>
       <use xlink:href="#DejaVuSans-30" x="63.623047"/>
      </g>
     </g>
    </g>
   </g>
   <g id="matplotlib.axis_2">
    <g id="ytick_1">
     <g id="line2d_6">
      <defs>
       <path id="m8d40cb2e1b" d="M 0 0 
L -3.5 0 
" style="stroke: #000000; stroke-width: 0.8"/>
      </defs>
      <g>
       <use xlink:href="#m8d40cb2e1b" x="33.2875" y="273.312" style="stroke: #000000; stroke-width: 0.8"/>
      </g>
     </g>
     <g id="text_6">
      <!-- 0 -->
      <g transform="translate(19.925 277.111219) scale(0.1 -0.1)">
       <use xlink:href="#DejaVuSans-30"/>
      </g>
     </g>
    </g>
    <g id="ytick_2">
     <g id="line2d_7">
      <g>
       <use xlink:href="#m8d40cb2e1b" x="33.2875" y="229.615448" style="stroke: #000000; stroke-width: 0.8"/>
      </g>
     </g>
     <g id="text_7">
      <!-- 20 -->
      <g transform="translate(13.5625 233.414667) scale(0.1 -0.1)">
       <use xlink:href="#DejaVuSans-32"/>
       <use xlink:href="#DejaVuSans-30" x="63.623047"/>
      </g>
     </g>
    </g>
    <g id="ytick_3">
     <g id="line2d_8">
      <g>
       <use xlink:href="#m8d40cb2e1b" x="33.2875" y="185.918897" style="stroke: #000000; stroke-width: 0.8"/>
      </g>
     </g>
     <g id="text_8">
      <!-- 40 -->
      <g transform="translate(13.5625 189.718115) scale(0.1 -0.1)">
       <defs>
        <path id="DejaVuSans-34" d="M 2419 4116 
L 825 1625 
L 2419 1625 
L 2419 4116 
z
M 2253 4666 
L 3047 4666 
L 3047 1625 
L 3713 1625 
L 3713 1100 
L 3047 1100 
L 3047 0 
L 2419 0 
L 2419 1100 
L 313 1100 
L 313 1709 
L 2253 4666 
z
" transform="scale(0.015625)"/>
       </defs>
       <use xlink:href="#DejaVuSans-34"/>
       <use xlink:href="#DejaVuSans-30" x="63.623047"/>
      </g>
     </g>
    </g>
    <g id="ytick_4">
     <g id="line2d_9">
      <g>
       <use xlink:href="#m8d40cb2e1b" x="33.2875" y="142.222345" style="stroke: #000000; stroke-width: 0.8"/>
      </g>
     </g>
     <g id="text_9">
      <!-- 60 -->
      <g transform="translate(13.5625 146.021564) scale(0.1 -0.1)">
       <defs>
        <path id="DejaVuSans-36" d="M 2113 2584 
Q 1688 2584 1439 2293 
Q 1191 2003 1191 1497 
Q 1191 994 1439 701 
Q 1688 409 2113 409 
Q 2538 409 2786 701 
Q 3034 994 3034 1497 
Q 3034 2003 2786 2293 
Q 2538 2584 2113 2584 
z
M 3366 4563 
L 3366 3988 
Q 3128 4100 2886 4159 
Q 2644 4219 2406 4219 
Q 1781 4219 1451 3797 
Q 1122 3375 1075 2522 
Q 1259 2794 1537 2939 
Q 1816 3084 2150 3084 
Q 2853 3084 3261 2657 
Q 3669 2231 3669 1497 
Q 3669 778 3244 343 
Q 2819 -91 2113 -91 
Q 1303 -91 875 529 
Q 447 1150 447 2328 
Q 447 3434 972 4092 
Q 1497 4750 2381 4750 
Q 2619 4750 2861 4703 
Q 3103 4656 3366 4563 
z
" transform="scale(0.015625)"/>
       </defs>
       <use xlink:href="#DejaVuSans-36"/>
       <use xlink:href="#DejaVuSans-30" x="63.623047"/>
      </g>
     </g>
    </g>
    <g id="ytick_5">
     <g id="line2d_10">
      <g>
       <use xlink:href="#m8d40cb2e1b" x="33.2875" y="98.525793" style="stroke: #000000; stroke-width: 0.8"/>
      </g>
     </g>
     <g id="text_10">
      <!-- 80 -->
      <g transform="translate(13.5625 102.325012) scale(0.1 -0.1)">
       <defs>
        <path id="DejaVuSans-38" d="M 2034 2216 
Q 1584 2216 1326 1975 
Q 1069 1734 1069 1313 
Q 1069 891 1326 650 
Q 1584 409 2034 409 
Q 2484 409 2743 651 
Q 3003 894 3003 1313 
Q 3003 1734 2745 1975 
Q 2488 2216 2034 2216 
z
M 1403 2484 
Q 997 2584 770 2862 
Q 544 3141 544 3541 
Q 544 4100 942 4425 
Q 1341 4750 2034 4750 
Q 2731 4750 3128 4425 
Q 3525 4100 3525 3541 
Q 3525 3141 3298 2862 
Q 3072 2584 2669 2484 
Q 3125 2378 3379 2068 
Q 3634 1759 3634 1313 
Q 3634 634 3220 271 
Q 2806 -91 2034 -91 
Q 1263 -91 848 271 
Q 434 634 434 1313 
Q 434 1759 690 2068 
Q 947 2378 1403 2484 
z
M 1172 3481 
Q 1172 3119 1398 2916 
Q 1625 2713 2034 2713 
Q 2441 2713 2670 2916 
Q 2900 3119 2900 3481 
Q 2900 3844 2670 4047 
Q 2441 4250 2034 4250 
Q 1625 4250 1398 4047 
Q 1172 3844 1172 3481 
z
" transform="scale(0.015625)"/>
       </defs>
       <use xlink:href="#DejaVuSans-38"/>
       <use xlink:href="#DejaVuSans-30" x="63.623047"/>
      </g>
     </g>
    </g>
    <g id="ytick_6">
     <g id="line2d_11">
      <g>
       <use xlink:href="#m8d40cb2e1b" x="33.2875" y="54.829241" style="stroke: #000000; stroke-width: 0.8"/>
      </g>
     </g>
     <g id="text_11">
      <!-- 100 -->
      <g transform="translate(7.2 58.62846) scale(0.1 -0.1)">
       <use xlink:href="#DejaVuSans-31"/>
       <use xlink:href="#DejaVuSans-30" x="63.623047"/>
       <use xlink:href="#DejaVuSans-30" x="127.246094"/>
      </g>
     </g>
    </g>
    <g id="ytick_7">
     <g id="line2d_12">
      <g>
       <use xlink:href="#m8d40cb2e1b" x="33.2875" y="11.13269" style="stroke: #000000; stroke-width: 0.8"/>
      </g>
     </g>
     <g id="text_12">
      <!-- 120 -->
      <g transform="translate(7.2 14.931908) scale(0.1 -0.1)">
       <use xlink:href="#DejaVuSans-31"/>
       <use xlink:href="#DejaVuSans-32" x="63.623047"/>
       <use xlink:href="#DejaVuSans-30" x="127.246094"/>
      </g>
     </g>
    </g>
   </g>
   <g id="patch_51">
    <path d="M 33.2875 273.312 
L 33.2875 7.2 
" style="fill: none; stroke: #000000; stroke-width: 0.8; stroke-linejoin: miter; stroke-linecap: square"/>
   </g>
   <g id="patch_52">
    <path d="M 390.4075 273.312 
L 390.4075 7.2 
" style="fill: none; stroke: #000000; stroke-width: 0.8; stroke-linejoin: miter; stroke-linecap: square"/>
   </g>
   <g id="patch_53">
    <path d="M 33.2875 273.312 
L 390.4075 273.312 
" style="fill: none; stroke: #000000; stroke-width: 0.8; stroke-linejoin: miter; stroke-linecap: square"/>
   </g>
   <g id="patch_54">
    <path d="M 33.2875 7.2 
L 390.4075 7.2 
" style="fill: none; stroke: #000000; stroke-width: 0.8; stroke-linejoin: miter; stroke-linecap: square"/>
   </g>
  </g>
 </g>
 <defs>
  <clipPath id="p4a8ac6552d">
   <rect x="33.2875" y="7.2" width="357.12" height="266.112"/>
  </clipPath>
 </defs>
</svg>
