<?xml version="1.0" encoding="utf-8" standalone="no"?>
<!DOCTYPE svg PUBLIC "-//W3C//DTD SVG 1.1//EN"
  "http://www.w3.org/Graphics/SVG/1.1/DTD/svg11.dtd">
<svg xmlns:xlink="http://www.w3.org/1999/xlink" width="1156.4875pt" height="600.59625pt" viewBox="0 0 1156.4875 600.59625" xmlns="http://www.w3.org/2000/svg" version="1.1">
 <metadata>
  <rdf:RDF xmlns:dc="http://purl.org/dc/elements/1.1/" xmlns:cc="http://creativecommons.org/ns#" xmlns:rdf="http://www.w3.org/1999/02/22-rdf-syntax-ns#">
   <cc:Work>
    <dc:type rdf:resource="http://purl.org/dc/dcmitype/StillImage"/>
    <dc:date>2023-03-25T15:34:00.380851</dc:date>
    <dc:format>image/svg+xml</dc:format>
    <dc:creator>
     <cc:Agent>
      <dc:title>Matplotlib v3.6.3, https://matplotlib.org/</dc:title>
     </cc:Agent>
    </dc:creator>
   </cc:Work>
  </rdf:RDF>
 </metadata>
 <defs>
  <style type="text/css">*{stroke-linejoin: round; stroke-linecap: butt}</style>
 </defs>
 <g id="figure_1">
  <g id="patch_1">
   <path d="M 0 600.59625 
L 1156.4875 600.59625 
L 1156.4875 0 
L 0 0 
z
" style="fill: #ffffff"/>
  </g>
  <g id="axes_1">
   <g id="patch_2">
    <path d="M 33.2875 576.718125 
L 1149.2875 576.718125 
L 1149.2875 22.318125 
L 33.2875 22.318125 
z
" style="fill: #ffffff"/>
   </g>
   <g id="patch_3">
    <path d="M 84.014773 576.718125 
L 94.160227 576.718125 
L 94.160227 48.718125 
L 84.014773 48.718125 
z
" clip-path="url(#pa893fb84b7)" style="fill: #1f77b4"/>
   </g>
   <g id="patch_4">
    <path d="M 94.160227 576.718125 
L 104.305682 576.718125 
L 104.305682 325.324867 
L 94.160227 325.324867 
z
" clip-path="url(#pa893fb84b7)" style="fill: #1f77b4"/>
   </g>
   <g id="patch_5">
    <path d="M 104.305682 576.718125 
L 114.451136 576.718125 
L 114.451136 438.043968 
L 104.305682 438.043968 
z
" clip-path="url(#pa893fb84b7)" style="fill: #1f77b4"/>
   </g>
   <g id="patch_6">
    <path d="M 114.451136 576.718125 
L 124.596591 576.718125 
L 124.596591 576.718125 
L 114.451136 576.718125 
z
" clip-path="url(#pa893fb84b7)" style="fill: #1f77b4"/>
   </g>
   <g id="patch_7">
    <path d="M 124.596591 576.718125 
L 134.742045 576.718125 
L 134.742045 498.111383 
L 124.596591 498.111383 
z
" clip-path="url(#pa893fb84b7)" style="fill: #1f77b4"/>
   </g>
   <g id="patch_8">
    <path d="M 134.742045 576.718125 
L 144.8875 576.718125 
L 144.8875 525.549586 
L 134.742045 525.549586 
z
" clip-path="url(#pa893fb84b7)" style="fill: #1f77b4"/>
   </g>
   <g id="patch_9">
    <path d="M 144.8875 576.718125 
L 155.032955 576.718125 
L 155.032955 544.830485 
L 144.8875 544.830485 
z
" clip-path="url(#pa893fb84b7)" style="fill: #1f77b4"/>
   </g>
   <g id="patch_10">
    <path d="M 155.032955 576.718125 
L 165.178409 576.718125 
L 165.178409 576.718125 
L 155.032955 576.718125 
z
" clip-path="url(#pa893fb84b7)" style="fill: #1f77b4"/>
   </g>
   <g id="patch_11">
    <path d="M 165.178409 576.718125 
L 175.323864 576.718125 
L 175.323864 549.279923 
L 165.178409 549.279923 
z
" clip-path="url(#pa893fb84b7)" style="fill: #1f77b4"/>
   </g>
   <g id="patch_12">
    <path d="M 175.323864 576.718125 
L 185.469318 576.718125 
L 185.469318 558.178799 
L 175.323864 558.178799 
z
" clip-path="url(#pa893fb84b7)" style="fill: #1f77b4"/>
   </g>
   <g id="patch_13">
    <path d="M 185.469318 576.718125 
L 195.614773 576.718125 
L 195.614773 556.695653 
L 185.469318 556.695653 
z
" clip-path="url(#pa893fb84b7)" style="fill: #1f77b4"/>
   </g>
   <g id="patch_14">
    <path d="M 195.614773 576.718125 
L 205.760227 576.718125 
L 205.760227 576.718125 
L 195.614773 576.718125 
z
" clip-path="url(#pa893fb84b7)" style="fill: #1f77b4"/>
   </g>
   <g id="patch_15">
    <path d="M 205.760227 576.718125 
L 215.905682 576.718125 
L 215.905682 570.043968 
L 205.760227 570.043968 
z
" clip-path="url(#pa893fb84b7)" style="fill: #1f77b4"/>
   </g>
   <g id="patch_16">
    <path d="M 215.905682 576.718125 
L 226.051136 576.718125 
L 226.051136 562.628237 
L 215.905682 562.628237 
z
" clip-path="url(#pa893fb84b7)" style="fill: #1f77b4"/>
   </g>
   <g id="patch_17">
    <path d="M 226.051136 576.718125 
L 236.196591 576.718125 
L 236.196591 573.751833 
L 226.051136 573.751833 
z
" clip-path="url(#pa893fb84b7)" style="fill: #1f77b4"/>
   </g>
   <g id="patch_18">
    <path d="M 236.196591 576.718125 
L 246.342045 576.718125 
L 246.342045 576.718125 
L 236.196591 576.718125 
z
" clip-path="url(#pa893fb84b7)" style="fill: #1f77b4"/>
   </g>
   <g id="patch_19">
    <path d="M 246.342045 576.718125 
L 256.4875 576.718125 
L 256.4875 568.560822 
L 246.342045 568.560822 
z
" clip-path="url(#pa893fb84b7)" style="fill: #1f77b4"/>
   </g>
   <g id="patch_20">
    <path d="M 256.4875 576.718125 
L 266.632955 576.718125 
L 266.632955 574.493406 
L 256.4875 574.493406 
z
" clip-path="url(#pa893fb84b7)" style="fill: #1f77b4"/>
   </g>
   <g id="patch_21">
    <path d="M 266.632955 576.718125 
L 276.778409 576.718125 
L 276.778409 573.751833 
L 266.632955 573.751833 
z
" clip-path="url(#pa893fb84b7)" style="fill: #1f77b4"/>
   </g>
   <g id="patch_22">
    <path d="M 276.778409 576.718125 
L 286.923864 576.718125 
L 286.923864 576.718125 
L 276.778409 576.718125 
z
" clip-path="url(#pa893fb84b7)" style="fill: #1f77b4"/>
   </g>
   <g id="patch_23">
    <path d="M 286.923864 576.718125 
L 297.069318 576.718125 
L 297.069318 572.268687 
L 286.923864 572.268687 
z
" clip-path="url(#pa893fb84b7)" style="fill: #1f77b4"/>
   </g>
   <g id="patch_24">
    <path d="M 297.069318 576.718125 
L 307.214773 576.718125 
L 307.214773 574.493406 
L 297.069318 574.493406 
z
" clip-path="url(#pa893fb84b7)" style="fill: #1f77b4"/>
   </g>
   <g id="patch_25">
    <path d="M 307.214773 576.718125 
L 317.360227 576.718125 
L 317.360227 575.234979 
L 307.214773 575.234979 
z
" clip-path="url(#pa893fb84b7)" style="fill: #1f77b4"/>
   </g>
   <g id="patch_26">
    <path d="M 317.360227 576.718125 
L 327.505682 576.718125 
L 327.505682 576.718125 
L 317.360227 576.718125 
z
" clip-path="url(#pa893fb84b7)" style="fill: #1f77b4"/>
   </g>
   <g id="patch_27">
    <path d="M 327.505682 576.718125 
L 337.651136 576.718125 
L 337.651136 575.976552 
L 327.505682 575.976552 
z
" clip-path="url(#pa893fb84b7)" style="fill: #1f77b4"/>
   </g>
   <g id="patch_28">
    <path d="M 337.651136 576.718125 
L 347.796591 576.718125 
L 347.796591 573.01026 
L 337.651136 573.01026 
z
" clip-path="url(#pa893fb84b7)" style="fill: #1f77b4"/>
   </g>
   <g id="patch_29">
    <path d="M 347.796591 576.718125 
L 357.942045 576.718125 
L 357.942045 575.976552 
L 347.796591 575.976552 
z
" clip-path="url(#pa893fb84b7)" style="fill: #1f77b4"/>
   </g>
   <g id="patch_30">
    <path d="M 357.942045 576.718125 
L 368.0875 576.718125 
L 368.0875 576.718125 
L 357.942045 576.718125 
z
" clip-path="url(#pa893fb84b7)" style="fill: #1f77b4"/>
   </g>
   <g id="patch_31">
    <path d="M 368.0875 576.718125 
L 378.232955 576.718125 
L 378.232955 575.234979 
L 368.0875 575.234979 
z
" clip-path="url(#pa893fb84b7)" style="fill: #1f77b4"/>
   </g>
   <g id="patch_32">
    <path d="M 378.232955 576.718125 
L 388.378409 576.718125 
L 388.378409 574.493406 
L 378.232955 574.493406 
z
" clip-path="url(#pa893fb84b7)" style="fill: #1f77b4"/>
   </g>
   <g id="patch_33">
    <path d="M 388.378409 576.718125 
L 398.523864 576.718125 
L 398.523864 576.718125 
L 388.378409 576.718125 
z
" clip-path="url(#pa893fb84b7)" style="fill: #1f77b4"/>
   </g>
   <g id="patch_34">
    <path d="M 398.523864 576.718125 
L 408.669318 576.718125 
L 408.669318 576.718125 
L 398.523864 576.718125 
z
" clip-path="url(#pa893fb84b7)" style="fill: #1f77b4"/>
   </g>
   <g id="patch_35">
    <path d="M 408.669318 576.718125 
L 418.814773 576.718125 
L 418.814773 574.493406 
L 408.669318 574.493406 
z
" clip-path="url(#pa893fb84b7)" style="fill: #1f77b4"/>
   </g>
   <g id="patch_36">
    <path d="M 418.814773 576.718125 
L 428.960227 576.718125 
L 428.960227 575.976552 
L 418.814773 575.976552 
z
" clip-path="url(#pa893fb84b7)" style="fill: #1f77b4"/>
   </g>
   <g id="patch_37">
    <path d="M 428.960227 576.718125 
L 439.105682 576.718125 
L 439.105682 576.718125 
L 428.960227 576.718125 
z
" clip-path="url(#pa893fb84b7)" style="fill: #1f77b4"/>
   </g>
   <g id="patch_38">
    <path d="M 439.105682 576.718125 
L 449.251136 576.718125 
L 449.251136 576.718125 
L 439.105682 576.718125 
z
" clip-path="url(#pa893fb84b7)" style="fill: #1f77b4"/>
   </g>
   <g id="patch_39">
    <path d="M 449.251136 576.718125 
L 459.396591 576.718125 
L 459.396591 575.234979 
L 449.251136 575.234979 
z
" clip-path="url(#pa893fb84b7)" style="fill: #1f77b4"/>
   </g>
   <g id="patch_40">
    <path d="M 459.396591 576.718125 
L 469.542045 576.718125 
L 469.542045 575.976552 
L 459.396591 575.976552 
z
" clip-path="url(#pa893fb84b7)" style="fill: #1f77b4"/>
   </g>
   <g id="patch_41">
    <path d="M 469.542045 576.718125 
L 479.6875 576.718125 
L 479.6875 575.234979 
L 469.542045 575.234979 
z
" clip-path="url(#pa893fb84b7)" style="fill: #1f77b4"/>
   </g>
   <g id="patch_42">
    <path d="M 479.6875 576.718125 
L 489.832955 576.718125 
L 489.832955 576.718125 
L 479.6875 576.718125 
z
" clip-path="url(#pa893fb84b7)" style="fill: #1f77b4"/>
   </g>
   <g id="patch_43">
    <path d="M 489.832955 576.718125 
L 499.978409 576.718125 
L 499.978409 576.718125 
L 489.832955 576.718125 
z
" clip-path="url(#pa893fb84b7)" style="fill: #1f77b4"/>
   </g>
   <g id="patch_44">
    <path d="M 499.978409 576.718125 
L 510.123864 576.718125 
L 510.123864 576.718125 
L 499.978409 576.718125 
z
" clip-path="url(#pa893fb84b7)" style="fill: #1f77b4"/>
   </g>
   <g id="patch_45">
    <path d="M 510.123864 576.718125 
L 520.269318 576.718125 
L 520.269318 575.234979 
L 510.123864 575.234979 
z
" clip-path="url(#pa893fb84b7)" style="fill: #1f77b4"/>
   </g>
   <g id="patch_46">
    <path d="M 520.269318 576.718125 
L 530.414773 576.718125 
L 530.414773 576.718125 
L 520.269318 576.718125 
z
" clip-path="url(#pa893fb84b7)" style="fill: #1f77b4"/>
   </g>
   <g id="patch_47">
    <path d="M 530.414773 576.718125 
L 540.560227 576.718125 
L 540.560227 576.718125 
L 530.414773 576.718125 
z
" clip-path="url(#pa893fb84b7)" style="fill: #1f77b4"/>
   </g>
   <g id="patch_48">
    <path d="M 540.560227 576.718125 
L 550.705682 576.718125 
L 550.705682 576.718125 
L 540.560227 576.718125 
z
" clip-path="url(#pa893fb84b7)" style="fill: #1f77b4"/>
   </g>
   <g id="patch_49">
    <path d="M 550.705682 576.718125 
L 560.851136 576.718125 
L 560.851136 576.718125 
L 550.705682 576.718125 
z
" clip-path="url(#pa893fb84b7)" style="fill: #1f77b4"/>
   </g>
   <g id="patch_50">
    <path d="M 560.851136 576.718125 
L 570.996591 576.718125 
L 570.996591 576.718125 
L 560.851136 576.718125 
z
" clip-path="url(#pa893fb84b7)" style="fill: #1f77b4"/>
   </g>
   <g id="patch_51">
    <path d="M 570.996591 576.718125 
L 581.142045 576.718125 
L 581.142045 575.976552 
L 570.996591 575.976552 
z
" clip-path="url(#pa893fb84b7)" style="fill: #1f77b4"/>
   </g>
   <g id="patch_52">
    <path d="M 581.142045 576.718125 
L 591.2875 576.718125 
L 591.2875 576.718125 
L 581.142045 576.718125 
z
" clip-path="url(#pa893fb84b7)" style="fill: #1f77b4"/>
   </g>
   <g id="patch_53">
    <path d="M 591.2875 576.718125 
L 601.432955 576.718125 
L 601.432955 576.718125 
L 591.2875 576.718125 
z
" clip-path="url(#pa893fb84b7)" style="fill: #1f77b4"/>
   </g>
   <g id="patch_54">
    <path d="M 601.432955 576.718125 
L 611.578409 576.718125 
L 611.578409 576.718125 
L 601.432955 576.718125 
z
" clip-path="url(#pa893fb84b7)" style="fill: #1f77b4"/>
   </g>
   <g id="patch_55">
    <path d="M 611.578409 576.718125 
L 621.723864 576.718125 
L 621.723864 576.718125 
L 611.578409 576.718125 
z
" clip-path="url(#pa893fb84b7)" style="fill: #1f77b4"/>
   </g>
   <g id="patch_56">
    <path d="M 621.723864 576.718125 
L 631.869318 576.718125 
L 631.869318 575.976552 
L 621.723864 575.976552 
z
" clip-path="url(#pa893fb84b7)" style="fill: #1f77b4"/>
   </g>
   <g id="patch_57">
    <path d="M 631.869318 576.718125 
L 642.014773 576.718125 
L 642.014773 576.718125 
L 631.869318 576.718125 
z
" clip-path="url(#pa893fb84b7)" style="fill: #1f77b4"/>
   </g>
   <g id="patch_58">
    <path d="M 642.014773 576.718125 
L 652.160227 576.718125 
L 652.160227 576.718125 
L 642.014773 576.718125 
z
" clip-path="url(#pa893fb84b7)" style="fill: #1f77b4"/>
   </g>
   <g id="patch_59">
    <path d="M 652.160227 576.718125 
L 662.305682 576.718125 
L 662.305682 576.718125 
L 652.160227 576.718125 
z
" clip-path="url(#pa893fb84b7)" style="fill: #1f77b4"/>
   </g>
   <g id="patch_60">
    <path d="M 662.305682 576.718125 
L 672.451136 576.718125 
L 672.451136 576.718125 
L 662.305682 576.718125 
z
" clip-path="url(#pa893fb84b7)" style="fill: #1f77b4"/>
   </g>
   <g id="patch_61">
    <path d="M 672.451136 576.718125 
L 682.596591 576.718125 
L 682.596591 575.976552 
L 672.451136 575.976552 
z
" clip-path="url(#pa893fb84b7)" style="fill: #1f77b4"/>
   </g>
   <g id="patch_62">
    <path d="M 682.596591 576.718125 
L 692.742045 576.718125 
L 692.742045 576.718125 
L 682.596591 576.718125 
z
" clip-path="url(#pa893fb84b7)" style="fill: #1f77b4"/>
   </g>
   <g id="patch_63">
    <path d="M 692.742045 576.718125 
L 702.8875 576.718125 
L 702.8875 576.718125 
L 692.742045 576.718125 
z
" clip-path="url(#pa893fb84b7)" style="fill: #1f77b4"/>
   </g>
   <g id="patch_64">
    <path d="M 702.8875 576.718125 
L 713.032955 576.718125 
L 713.032955 576.718125 
L 702.8875 576.718125 
z
" clip-path="url(#pa893fb84b7)" style="fill: #1f77b4"/>
   </g>
   <g id="patch_65">
    <path d="M 713.032955 576.718125 
L 723.178409 576.718125 
L 723.178409 576.718125 
L 713.032955 576.718125 
z
" clip-path="url(#pa893fb84b7)" style="fill: #1f77b4"/>
   </g>
   <g id="patch_66">
    <path d="M 723.178409 576.718125 
L 733.323864 576.718125 
L 733.323864 576.718125 
L 723.178409 576.718125 
z
" clip-path="url(#pa893fb84b7)" style="fill: #1f77b4"/>
   </g>
   <g id="patch_67">
    <path d="M 733.323864 576.718125 
L 743.469318 576.718125 
L 743.469318 575.976552 
L 733.323864 575.976552 
z
" clip-path="url(#pa893fb84b7)" style="fill: #1f77b4"/>
   </g>
   <g id="patch_68">
    <path d="M 743.469318 576.718125 
L 753.614773 576.718125 
L 753.614773 576.718125 
L 743.469318 576.718125 
z
" clip-path="url(#pa893fb84b7)" style="fill: #1f77b4"/>
   </g>
   <g id="patch_69">
    <path d="M 753.614773 576.718125 
L 763.760227 576.718125 
L 763.760227 576.718125 
L 753.614773 576.718125 
z
" clip-path="url(#pa893fb84b7)" style="fill: #1f77b4"/>
   </g>
   <g id="patch_70">
    <path d="M 763.760227 576.718125 
L 773.905682 576.718125 
L 773.905682 576.718125 
L 763.760227 576.718125 
z
" clip-path="url(#pa893fb84b7)" style="fill: #1f77b4"/>
   </g>
   <g id="patch_71">
    <path d="M 773.905682 576.718125 
L 784.051136 576.718125 
L 784.051136 576.718125 
L 773.905682 576.718125 
z
" clip-path="url(#pa893fb84b7)" style="fill: #1f77b4"/>
   </g>
   <g id="patch_72">
    <path d="M 784.051136 576.718125 
L 794.196591 576.718125 
L 794.196591 576.718125 
L 784.051136 576.718125 
z
" clip-path="url(#pa893fb84b7)" style="fill: #1f77b4"/>
   </g>
   <g id="patch_73">
    <path d="M 794.196591 576.718125 
L 804.342045 576.718125 
L 804.342045 575.976552 
L 794.196591 575.976552 
z
" clip-path="url(#pa893fb84b7)" style="fill: #1f77b4"/>
   </g>
   <g id="patch_74">
    <path d="M 804.342045 576.718125 
L 814.4875 576.718125 
L 814.4875 576.718125 
L 804.342045 576.718125 
z
" clip-path="url(#pa893fb84b7)" style="fill: #1f77b4"/>
   </g>
   <g id="patch_75">
    <path d="M 814.4875 576.718125 
L 824.632955 576.718125 
L 824.632955 576.718125 
L 814.4875 576.718125 
z
" clip-path="url(#pa893fb84b7)" style="fill: #1f77b4"/>
   </g>
   <g id="patch_76">
    <path d="M 824.632955 576.718125 
L 834.778409 576.718125 
L 834.778409 576.718125 
L 824.632955 576.718125 
z
" clip-path="url(#pa893fb84b7)" style="fill: #1f77b4"/>
   </g>
   <g id="patch_77">
    <path d="M 834.778409 576.718125 
L 844.923864 576.718125 
L 844.923864 576.718125 
L 834.778409 576.718125 
z
" clip-path="url(#pa893fb84b7)" style="fill: #1f77b4"/>
   </g>
   <g id="patch_78">
    <path d="M 844.923864 576.718125 
L 855.069318 576.718125 
L 855.069318 576.718125 
L 844.923864 576.718125 
z
" clip-path="url(#pa893fb84b7)" style="fill: #1f77b4"/>
   </g>
   <g id="patch_79">
    <path d="M 855.069318 576.718125 
L 865.214773 576.718125 
L 865.214773 576.718125 
L 855.069318 576.718125 
z
" clip-path="url(#pa893fb84b7)" style="fill: #1f77b4"/>
   </g>
   <g id="patch_80">
    <path d="M 865.214773 576.718125 
L 875.360227 576.718125 
L 875.360227 576.718125 
L 865.214773 576.718125 
z
" clip-path="url(#pa893fb84b7)" style="fill: #1f77b4"/>
   </g>
   <g id="patch_81">
    <path d="M 875.360227 576.718125 
L 885.505682 576.718125 
L 885.505682 576.718125 
L 875.360227 576.718125 
z
" clip-path="url(#pa893fb84b7)" style="fill: #1f77b4"/>
   </g>
   <g id="patch_82">
    <path d="M 885.505682 576.718125 
L 895.651136 576.718125 
L 895.651136 576.718125 
L 885.505682 576.718125 
z
" clip-path="url(#pa893fb84b7)" style="fill: #1f77b4"/>
   </g>
   <g id="patch_83">
    <path d="M 895.651136 576.718125 
L 905.796591 576.718125 
L 905.796591 576.718125 
L 895.651136 576.718125 
z
" clip-path="url(#pa893fb84b7)" style="fill: #1f77b4"/>
   </g>
   <g id="patch_84">
    <path d="M 905.796591 576.718125 
L 915.942045 576.718125 
L 915.942045 576.718125 
L 905.796591 576.718125 
z
" clip-path="url(#pa893fb84b7)" style="fill: #1f77b4"/>
   </g>
   <g id="patch_85">
    <path d="M 915.942045 576.718125 
L 926.0875 576.718125 
L 926.0875 576.718125 
L 915.942045 576.718125 
z
" clip-path="url(#pa893fb84b7)" style="fill: #1f77b4"/>
   </g>
   <g id="patch_86">
    <path d="M 926.0875 576.718125 
L 936.232955 576.718125 
L 936.232955 576.718125 
L 926.0875 576.718125 
z
" clip-path="url(#pa893fb84b7)" style="fill: #1f77b4"/>
   </g>
   <g id="patch_87">
    <path d="M 936.232955 576.718125 
L 946.378409 576.718125 
L 946.378409 576.718125 
L 936.232955 576.718125 
z
" clip-path="url(#pa893fb84b7)" style="fill: #1f77b4"/>
   </g>
   <g id="patch_88">
    <path d="M 946.378409 576.718125 
L 956.523864 576.718125 
L 956.523864 576.718125 
L 946.378409 576.718125 
z
" clip-path="url(#pa893fb84b7)" style="fill: #1f77b4"/>
   </g>
   <g id="patch_89">
    <path d="M 956.523864 576.718125 
L 966.669318 576.718125 
L 966.669318 576.718125 
L 956.523864 576.718125 
z
" clip-path="url(#pa893fb84b7)" style="fill: #1f77b4"/>
   </g>
   <g id="patch_90">
    <path d="M 966.669318 576.718125 
L 976.814773 576.718125 
L 976.814773 576.718125 
L 966.669318 576.718125 
z
" clip-path="url(#pa893fb84b7)" style="fill: #1f77b4"/>
   </g>
   <g id="patch_91">
    <path d="M 976.814773 576.718125 
L 986.960227 576.718125 
L 986.960227 576.718125 
L 976.814773 576.718125 
z
" clip-path="url(#pa893fb84b7)" style="fill: #1f77b4"/>
   </g>
   <g id="patch_92">
    <path d="M 986.960227 576.718125 
L 997.105682 576.718125 
L 997.105682 576.718125 
L 986.960227 576.718125 
z
" clip-path="url(#pa893fb84b7)" style="fill: #1f77b4"/>
   </g>
   <g id="patch_93">
    <path d="M 997.105682 576.718125 
L 1007.251136 576.718125 
L 1007.251136 576.718125 
L 997.105682 576.718125 
z
" clip-path="url(#pa893fb84b7)" style="fill: #1f77b4"/>
   </g>
   <g id="patch_94">
    <path d="M 1007.251136 576.718125 
L 1017.396591 576.718125 
L 1017.396591 576.718125 
L 1007.251136 576.718125 
z
" clip-path="url(#pa893fb84b7)" style="fill: #1f77b4"/>
   </g>
   <g id="patch_95">
    <path d="M 1017.396591 576.718125 
L 1027.542045 576.718125 
L 1027.542045 576.718125 
L 1017.396591 576.718125 
z
" clip-path="url(#pa893fb84b7)" style="fill: #1f77b4"/>
   </g>
   <g id="patch_96">
    <path d="M 1027.542045 576.718125 
L 1037.6875 576.718125 
L 1037.6875 576.718125 
L 1027.542045 576.718125 
z
" clip-path="url(#pa893fb84b7)" style="fill: #1f77b4"/>
   </g>
   <g id="patch_97">
    <path d="M 1037.6875 576.718125 
L 1047.832955 576.718125 
L 1047.832955 576.718125 
L 1037.6875 576.718125 
z
" clip-path="url(#pa893fb84b7)" style="fill: #1f77b4"/>
   </g>
   <g id="patch_98">
    <path d="M 1047.832955 576.718125 
L 1057.978409 576.718125 
L 1057.978409 576.718125 
L 1047.832955 576.718125 
z
" clip-path="url(#pa893fb84b7)" style="fill: #1f77b4"/>
   </g>
   <g id="patch_99">
    <path d="M 1057.978409 576.718125 
L 1068.123864 576.718125 
L 1068.123864 576.718125 
L 1057.978409 576.718125 
z
" clip-path="url(#pa893fb84b7)" style="fill: #1f77b4"/>
   </g>
   <g id="patch_100">
    <path d="M 1068.123864 576.718125 
L 1078.269318 576.718125 
L 1078.269318 576.718125 
L 1068.123864 576.718125 
z
" clip-path="url(#pa893fb84b7)" style="fill: #1f77b4"/>
   </g>
   <g id="patch_101">
    <path d="M 1078.269318 576.718125 
L 1088.414773 576.718125 
L 1088.414773 576.718125 
L 1078.269318 576.718125 
z
" clip-path="url(#pa893fb84b7)" style="fill: #1f77b4"/>
   </g>
   <g id="patch_102">
    <path d="M 1088.414773 576.718125 
L 1098.560227 576.718125 
L 1098.560227 575.976552 
L 1088.414773 575.976552 
z
" clip-path="url(#pa893fb84b7)" style="fill: #1f77b4"/>
   </g>
   <g id="matplotlib.axis_1">
    <g id="xtick_1">
     <g id="line2d_1">
      <path d="M 70.4875 576.718125 
L 70.4875 22.318125 
" clip-path="url(#pa893fb84b7)" style="fill: none; stroke: #b0b0b0; stroke-width: 0.8; stroke-linecap: square"/>
     </g>
     <g id="line2d_2">
      <defs>
       <path id="m83df58e27f" d="M 0 0 
L 0 3.5 
" style="stroke: #000000; stroke-width: 0.8"/>
      </defs>
      <g>
       <use xlink:href="#m83df58e27f" x="70.4875" y="576.718125" style="stroke: #000000; stroke-width: 0.8"/>
      </g>
     </g>
     <g id="text_1">
      <!-- 0 -->
      <g transform="translate(67.30625 591.316563) scale(0.1 -0.1)">
       <defs>
        <path id="DejaVuSans-30" d="M 2034 4250 
Q 1547 4250 1301 3770 
Q 1056 3291 1056 2328 
Q 1056 1369 1301 889 
Q 1547 409 2034 409 
Q 2525 409 2770 889 
Q 3016 1369 3016 2328 
Q 3016 3291 2770 3770 
Q 2525 4250 2034 4250 
z
M 2034 4750 
Q 2819 4750 3233 4129 
Q 3647 3509 3647 2328 
Q 3647 1150 3233 529 
Q 2819 -91 2034 -91 
Q 1250 -91 836 529 
Q 422 1150 422 2328 
Q 422 3509 836 4129 
Q 1250 4750 2034 4750 
z
" transform="scale(0.015625)"/>
       </defs>
       <use xlink:href="#DejaVuSans-30"/>
      </g>
     </g>
    </g>
    <g id="xtick_2">
     <g id="line2d_3">
      <path d="M 205.760227 576.718125 
L 205.760227 22.318125 
" clip-path="url(#pa893fb84b7)" style="fill: none; stroke: #b0b0b0; stroke-width: 0.8; stroke-linecap: square"/>
     </g>
     <g id="line2d_4">
      <g>
       <use xlink:href="#m83df58e27f" x="205.760227" y="576.718125" style="stroke: #000000; stroke-width: 0.8"/>
      </g>
     </g>
     <g id="text_2">
      <!-- 10 -->
      <g transform="translate(199.397727 591.316563) scale(0.1 -0.1)">
       <defs>
        <path id="DejaVuSans-31" d="M 794 531 
L 1825 531 
L 1825 4091 
L 703 3866 
L 703 4441 
L 1819 4666 
L 2450 4666 
L 2450 531 
L 3481 531 
L 3481 0 
L 794 0 
L 794 531 
z
" transform="scale(0.015625)"/>
       </defs>
       <use xlink:href="#DejaVuSans-31"/>
       <use xlink:href="#DejaVuSans-30" x="63.623047"/>
      </g>
     </g>
    </g>
    <g id="xtick_3">
     <g id="line2d_5">
      <path d="M 341.032955 576.718125 
L 341.032955 22.318125 
" clip-path="url(#pa893fb84b7)" style="fill: none; stroke: #b0b0b0; stroke-width: 0.8; stroke-linecap: square"/>
     </g>
     <g id="line2d_6">
      <g>
       <use xlink:href="#m83df58e27f" x="341.032955" y="576.718125" style="stroke: #000000; stroke-width: 0.8"/>
      </g>
     </g>
     <g id="text_3">
      <!-- 20 -->
      <g transform="translate(334.670455 591.316563) scale(0.1 -0.1)">
       <defs>
        <path id="DejaVuSans-32" d="M 1228 531 
L 3431 531 
L 3431 0 
L 469 0 
L 469 531 
Q 828 903 1448 1529 
Q 2069 2156 2228 2338 
Q 2531 2678 2651 2914 
Q 2772 3150 2772 3378 
Q 2772 3750 2511 3984 
Q 2250 4219 1831 4219 
Q 1534 4219 1204 4116 
Q 875 4013 500 3803 
L 500 4441 
Q 881 4594 1212 4672 
Q 1544 4750 1819 4750 
Q 2544 4750 2975 4387 
Q 3406 4025 3406 3419 
Q 3406 3131 3298 2873 
Q 3191 2616 2906 2266 
Q 2828 2175 2409 1742 
Q 1991 1309 1228 531 
z
" transform="scale(0.015625)"/>
       </defs>
       <use xlink:href="#DejaVuSans-32"/>
       <use xlink:href="#DejaVuSans-30" x="63.623047"/>
      </g>
     </g>
    </g>
    <g id="xtick_4">
     <g id="line2d_7">
      <path d="M 476.305682 576.718125 
L 476.305682 22.318125 
" clip-path="url(#pa893fb84b7)" style="fill: none; stroke: #b0b0b0; stroke-width: 0.8; stroke-linecap: square"/>
     </g>
     <g id="line2d_8">
      <g>
       <use xlink:href="#m83df58e27f" x="476.305682" y="576.718125" style="stroke: #000000; stroke-width: 0.8"/>
      </g>
     </g>
     <g id="text_4">
      <!-- 30 -->
      <g transform="translate(469.943182 591.316563) scale(0.1 -0.1)">
       <defs>
        <path id="DejaVuSans-33" d="M 2597 2516 
Q 3050 2419 3304 2112 
Q 3559 1806 3559 1356 
Q 3559 666 3084 287 
Q 2609 -91 1734 -91 
Q 1441 -91 1130 -33 
Q 819 25 488 141 
L 488 750 
Q 750 597 1062 519 
Q 1375 441 1716 441 
Q 2309 441 2620 675 
Q 2931 909 2931 1356 
Q 2931 1769 2642 2001 
Q 2353 2234 1838 2234 
L 1294 2234 
L 1294 2753 
L 1863 2753 
Q 2328 2753 2575 2939 
Q 2822 3125 2822 3475 
Q 2822 3834 2567 4026 
Q 2313 4219 1838 4219 
Q 1578 4219 1281 4162 
Q 984 4106 628 3988 
L 628 4550 
Q 988 4650 1302 4700 
Q 1616 4750 1894 4750 
Q 2613 4750 3031 4423 
Q 3450 4097 3450 3541 
Q 3450 3153 3228 2886 
Q 3006 2619 2597 2516 
z
" transform="scale(0.015625)"/>
       </defs>
       <use xlink:href="#DejaVuSans-33"/>
       <use xlink:href="#DejaVuSans-30" x="63.623047"/>
      </g>
     </g>
    </g>
    <g id="xtick_5">
     <g id="line2d_9">
      <path d="M 611.578409 576.718125 
L 611.578409 22.318125 
" clip-path="url(#pa893fb84b7)" style="fill: none; stroke: #b0b0b0; stroke-width: 0.8; stroke-linecap: square"/>
     </g>
     <g id="line2d_10">
      <g>
       <use xlink:href="#m83df58e27f" x="611.578409" y="576.718125" style="stroke: #000000; stroke-width: 0.8"/>
      </g>
     </g>
     <g id="text_5">
      <!-- 40 -->
      <g transform="translate(605.215909 591.316563) scale(0.1 -0.1)">
       <defs>
        <path id="DejaVuSans-34" d="M 2419 4116 
L 825 1625 
L 2419 1625 
L 2419 4116 
z
M 2253 4666 
L 3047 4666 
L 3047 1625 
L 3713 1625 
L 3713 1100 
L 3047 1100 
L 3047 0 
L 2419 0 
L 2419 1100 
L 313 1100 
L 313 1709 
L 2253 4666 
z
" transform="scale(0.015625)"/>
       </defs>
       <use xlink:href="#DejaVuSans-34"/>
       <use xlink:href="#DejaVuSans-30" x="63.623047"/>
      </g>
     </g>
    </g>
    <g id="xtick_6">
     <g id="line2d_11">
      <path d="M 746.851136 576.718125 
L 746.851136 22.318125 
" clip-path="url(#pa893fb84b7)" style="fill: none; stroke: #b0b0b0; stroke-width: 0.8; stroke-linecap: square"/>
     </g>
     <g id="line2d_12">
      <g>
       <use xlink:href="#m83df58e27f" x="746.851136" y="576.718125" style="stroke: #000000; stroke-width: 0.8"/>
      </g>
     </g>
     <g id="text_6">
      <!-- 50 -->
      <g transform="translate(740.488636 591.316563) scale(0.1 -0.1)">
       <defs>
        <path id="DejaVuSans-35" d="M 691 4666 
L 3169 4666 
L 3169 4134 
L 1269 4134 
L 1269 2991 
Q 1406 3038 1543 3061 
Q 1681 3084 1819 3084 
Q 2600 3084 3056 2656 
Q 3513 2228 3513 1497 
Q 3513 744 3044 326 
Q 2575 -91 1722 -91 
Q 1428 -91 1123 -41 
Q 819 9 494 109 
L 494 744 
Q 775 591 1075 516 
Q 1375 441 1709 441 
Q 2250 441 2565 725 
Q 2881 1009 2881 1497 
Q 2881 1984 2565 2268 
Q 2250 2553 1709 2553 
Q 1456 2553 1204 2497 
Q 953 2441 691 2322 
L 691 4666 
z
" transform="scale(0.015625)"/>
       </defs>
       <use xlink:href="#DejaVuSans-35"/>
       <use xlink:href="#DejaVuSans-30" x="63.623047"/>
      </g>
     </g>
    </g>
    <g id="xtick_7">
     <g id="line2d_13">
      <path d="M 882.123864 576.718125 
L 882.123864 22.318125 
" clip-path="url(#pa893fb84b7)" style="fill: none; stroke: #b0b0b0; stroke-width: 0.8; stroke-linecap: square"/>
     </g>
     <g id="line2d_14">
      <g>
       <use xlink:href="#m83df58e27f" x="882.123864" y="576.718125" style="stroke: #000000; stroke-width: 0.8"/>
      </g>
     </g>
     <g id="text_7">
      <!-- 60 -->
      <g transform="translate(875.761364 591.316563) scale(0.1 -0.1)">
       <defs>
        <path id="DejaVuSans-36" d="M 2113 2584 
Q 1688 2584 1439 2293 
Q 1191 2003 1191 1497 
Q 1191 994 1439 701 
Q 1688 409 2113 409 
Q 2538 409 2786 701 
Q 3034 994 3034 1497 
Q 3034 2003 2786 2293 
Q 2538 2584 2113 2584 
z
M 3366 4563 
L 3366 3988 
Q 3128 4100 2886 4159 
Q 2644 4219 2406 4219 
Q 1781 4219 1451 3797 
Q 1122 3375 1075 2522 
Q 1259 2794 1537 2939 
Q 1816 3084 2150 3084 
Q 2853 3084 3261 2657 
Q 3669 2231 3669 1497 
Q 3669 778 3244 343 
Q 2819 -91 2113 -91 
Q 1303 -91 875 529 
Q 447 1150 447 2328 
Q 447 3434 972 4092 
Q 1497 4750 2381 4750 
Q 2619 4750 2861 4703 
Q 3103 4656 3366 4563 
z
" transform="scale(0.015625)"/>
       </defs>
       <use xlink:href="#DejaVuSans-36"/>
       <use xlink:href="#DejaVuSans-30" x="63.623047"/>
      </g>
     </g>
    </g>
    <g id="xtick_8">
     <g id="line2d_15">
      <path d="M 1017.396591 576.718125 
L 1017.396591 22.318125 
" clip-path="url(#pa893fb84b7)" style="fill: none; stroke: #b0b0b0; stroke-width: 0.8; stroke-linecap: square"/>
     </g>
     <g id="line2d_16">
      <g>
       <use xlink:href="#m83df58e27f" x="1017.396591" y="576.718125" style="stroke: #000000; stroke-width: 0.8"/>
      </g>
     </g>
     <g id="text_8">
      <!-- 70 -->
      <g transform="translate(1011.034091 591.316563) scale(0.1 -0.1)">
       <defs>
        <path id="DejaVuSans-37" d="M 525 4666 
L 3525 4666 
L 3525 4397 
L 1831 0 
L 1172 0 
L 2766 4134 
L 525 4134 
L 525 4666 
z
" transform="scale(0.015625)"/>
       </defs>
       <use xlink:href="#DejaVuSans-37"/>
       <use xlink:href="#DejaVuSans-30" x="63.623047"/>
      </g>
     </g>
    </g>
   </g>
   <g id="matplotlib.axis_2">
    <g id="ytick_1">
     <g id="line2d_17">
      <path d="M 33.2875 576.718125 
L 1149.2875 576.718125 
" clip-path="url(#pa893fb84b7)" style="fill: none; stroke: #b0b0b0; stroke-width: 0.8; stroke-linecap: square"/>
     </g>
     <g id="line2d_18">
      <defs>
       <path id="mec9c3ad646" d="M 0 0 
L -3.5 0 
" style="stroke: #000000; stroke-width: 0.8"/>
      </defs>
      <g>
       <use xlink:href="#mec9c3ad646" x="33.2875" y="576.718125" style="stroke: #000000; stroke-width: 0.8"/>
      </g>
     </g>
     <g id="text_9">
      <!-- 0 -->
      <g transform="translate(19.925 580.517344) scale(0.1 -0.1)">
       <use xlink:href="#DejaVuSans-30"/>
      </g>
     </g>
    </g>
    <g id="ytick_2">
     <g id="line2d_19">
      <path d="M 33.2875 502.560822 
L 1149.2875 502.560822 
" clip-path="url(#pa893fb84b7)" style="fill: none; stroke: #b0b0b0; stroke-width: 0.8; stroke-linecap: square"/>
     </g>
     <g id="line2d_20">
      <g>
       <use xlink:href="#mec9c3ad646" x="33.2875" y="502.560822" style="stroke: #000000; stroke-width: 0.8"/>
      </g>
     </g>
     <g id="text_10">
      <!-- 100 -->
      <g transform="translate(7.2 506.36004) scale(0.1 -0.1)">
       <use xlink:href="#DejaVuSans-31"/>
       <use xlink:href="#DejaVuSans-30" x="63.623047"/>
       <use xlink:href="#DejaVuSans-30" x="127.246094"/>
      </g>
     </g>
    </g>
    <g id="ytick_3">
     <g id="line2d_21">
      <path d="M 33.2875 428.403518 
L 1149.2875 428.403518 
" clip-path="url(#pa893fb84b7)" style="fill: none; stroke: #b0b0b0; stroke-width: 0.8; stroke-linecap: square"/>
     </g>
     <g id="line2d_22">
      <g>
       <use xlink:href="#mec9c3ad646" x="33.2875" y="428.403518" style="stroke: #000000; stroke-width: 0.8"/>
      </g>
     </g>
     <g id="text_11">
      <!-- 200 -->
      <g transform="translate(7.2 432.202737) scale(0.1 -0.1)">
       <use xlink:href="#DejaVuSans-32"/>
       <use xlink:href="#DejaVuSans-30" x="63.623047"/>
       <use xlink:href="#DejaVuSans-30" x="127.246094"/>
      </g>
     </g>
    </g>
    <g id="ytick_4">
     <g id="line2d_23">
      <path d="M 33.2875 354.246215 
L 1149.2875 354.246215 
" clip-path="url(#pa893fb84b7)" style="fill: none; stroke: #b0b0b0; stroke-width: 0.8; stroke-linecap: square"/>
     </g>
     <g id="line2d_24">
      <g>
       <use xlink:href="#mec9c3ad646" x="33.2875" y="354.246215" style="stroke: #000000; stroke-width: 0.8"/>
      </g>
     </g>
     <g id="text_12">
      <!-- 300 -->
      <g transform="translate(7.2 358.045434) scale(0.1 -0.1)">
       <use xlink:href="#DejaVuSans-33"/>
       <use xlink:href="#DejaVuSans-30" x="63.623047"/>
       <use xlink:href="#DejaVuSans-30" x="127.246094"/>
      </g>
     </g>
    </g>
    <g id="ytick_5">
     <g id="line2d_25">
      <path d="M 33.2875 280.088912 
L 1149.2875 280.088912 
" clip-path="url(#pa893fb84b7)" style="fill: none; stroke: #b0b0b0; stroke-width: 0.8; stroke-linecap: square"/>
     </g>
     <g id="line2d_26">
      <g>
       <use xlink:href="#mec9c3ad646" x="33.2875" y="280.088912" style="stroke: #000000; stroke-width: 0.8"/>
      </g>
     </g>
     <g id="text_13">
      <!-- 400 -->
      <g transform="translate(7.2 283.88813) scale(0.1 -0.1)">
       <use xlink:href="#DejaVuSans-34"/>
       <use xlink:href="#DejaVuSans-30" x="63.623047"/>
       <use xlink:href="#DejaVuSans-30" x="127.246094"/>
      </g>
     </g>
    </g>
    <g id="ytick_6">
     <g id="line2d_27">
      <path d="M 33.2875 205.931608 
L 1149.2875 205.931608 
" clip-path="url(#pa893fb84b7)" style="fill: none; stroke: #b0b0b0; stroke-width: 0.8; stroke-linecap: square"/>
     </g>
     <g id="line2d_28">
      <g>
       <use xlink:href="#mec9c3ad646" x="33.2875" y="205.931608" style="stroke: #000000; stroke-width: 0.8"/>
      </g>
     </g>
     <g id="text_14">
      <!-- 500 -->
      <g transform="translate(7.2 209.730827) scale(0.1 -0.1)">
       <use xlink:href="#DejaVuSans-35"/>
       <use xlink:href="#DejaVuSans-30" x="63.623047"/>
       <use xlink:href="#DejaVuSans-30" x="127.246094"/>
      </g>
     </g>
    </g>
    <g id="ytick_7">
     <g id="line2d_29">
      <path d="M 33.2875 131.774305 
L 1149.2875 131.774305 
" clip-path="url(#pa893fb84b7)" style="fill: none; stroke: #b0b0b0; stroke-width: 0.8; stroke-linecap: square"/>
     </g>
     <g id="line2d_30">
      <g>
       <use xlink:href="#mec9c3ad646" x="33.2875" y="131.774305" style="stroke: #000000; stroke-width: 0.8"/>
      </g>
     </g>
     <g id="text_15">
      <!-- 600 -->
      <g transform="translate(7.2 135.573524) scale(0.1 -0.1)">
       <use xlink:href="#DejaVuSans-36"/>
       <use xlink:href="#DejaVuSans-30" x="63.623047"/>
       <use xlink:href="#DejaVuSans-30" x="127.246094"/>
      </g>
     </g>
    </g>
    <g id="ytick_8">
     <g id="line2d_31">
      <path d="M 33.2875 57.617001 
L 1149.2875 57.617001 
" clip-path="url(#pa893fb84b7)" style="fill: none; stroke: #b0b0b0; stroke-width: 0.8; stroke-linecap: square"/>
     </g>
     <g id="line2d_32">
      <g>
       <use xlink:href="#mec9c3ad646" x="33.2875" y="57.617001" style="stroke: #000000; stroke-width: 0.8"/>
      </g>
     </g>
     <g id="text_16">
      <!-- 700 -->
      <g transform="translate(7.2 61.41622) scale(0.1 -0.1)">
       <use xlink:href="#DejaVuSans-37"/>
       <use xlink:href="#DejaVuSans-30" x="63.623047"/>
       <use xlink:href="#DejaVuSans-30" x="127.246094"/>
      </g>
     </g>
    </g>
   </g>
   <g id="patch_103">
    <path d="M 33.2875 576.718125 
L 33.2875 22.318125 
" style="fill: none; stroke: #000000; stroke-width: 0.8; stroke-linejoin: miter; stroke-linecap: square"/>
   </g>
   <g id="patch_104">
    <path d="M 1149.2875 576.718125 
L 1149.2875 22.318125 
" style="fill: none; stroke: #000000; stroke-width: 0.8; stroke-linejoin: miter; stroke-linecap: square"/>
   </g>
   <g id="patch_105">
    <path d="M 33.2875 576.718125 
L 1149.2875 576.718125 
" style="fill: none; stroke: #000000; stroke-width: 0.8; stroke-linejoin: miter; stroke-linecap: square"/>
   </g>
   <g id="patch_106">
    <path d="M 33.2875 22.318125 
L 1149.2875 22.318125 
" style="fill: none; stroke: #000000; stroke-width: 0.8; stroke-linejoin: miter; stroke-linecap: square"/>
   </g>
   <g id="text_17">
    <!-- actions -->
    <g transform="translate(569.693125 16.318125) scale(0.12 -0.12)">
     <defs>
      <path id="DejaVuSans-61" d="M 2194 1759 
Q 1497 1759 1228 1600 
Q 959 1441 959 1056 
Q 959 750 1161 570 
Q 1363 391 1709 391 
Q 2188 391 2477 730 
Q 2766 1069 2766 1631 
L 2766 1759 
L 2194 1759 
z
M 3341 1997 
L 3341 0 
L 2766 0 
L 2766 531 
Q 2569 213 2275 61 
Q 1981 -91 1556 -91 
Q 1019 -91 701 211 
Q 384 513 384 1019 
Q 384 1609 779 1909 
Q 1175 2209 1959 2209 
L 2766 2209 
L 2766 2266 
Q 2766 2663 2505 2880 
Q 2244 3097 1772 3097 
Q 1472 3097 1187 3025 
Q 903 2953 641 2809 
L 641 3341 
Q 956 3463 1253 3523 
Q 1550 3584 1831 3584 
Q 2591 3584 2966 3190 
Q 3341 2797 3341 1997 
z
" transform="scale(0.015625)"/>
      <path id="DejaVuSans-63" d="M 3122 3366 
L 3122 2828 
Q 2878 2963 2633 3030 
Q 2388 3097 2138 3097 
Q 1578 3097 1268 2742 
Q 959 2388 959 1747 
Q 959 1106 1268 751 
Q 1578 397 2138 397 
Q 2388 397 2633 464 
Q 2878 531 3122 666 
L 3122 134 
Q 2881 22 2623 -34 
Q 2366 -91 2075 -91 
Q 1284 -91 818 406 
Q 353 903 353 1747 
Q 353 2603 823 3093 
Q 1294 3584 2113 3584 
Q 2378 3584 2631 3529 
Q 2884 3475 3122 3366 
z
" transform="scale(0.015625)"/>
      <path id="DejaVuSans-74" d="M 1172 4494 
L 1172 3500 
L 2356 3500 
L 2356 3053 
L 1172 3053 
L 1172 1153 
Q 1172 725 1289 603 
Q 1406 481 1766 481 
L 2356 481 
L 2356 0 
L 1766 0 
Q 1100 0 847 248 
Q 594 497 594 1153 
L 594 3053 
L 172 3053 
L 172 3500 
L 594 3500 
L 594 4494 
L 1172 4494 
z
" transform="scale(0.015625)"/>
      <path id="DejaVuSans-69" d="M 603 3500 
L 1178 3500 
L 1178 0 
L 603 0 
L 603 3500 
z
M 603 4863 
L 1178 4863 
L 1178 4134 
L 603 4134 
L 603 4863 
z
" transform="scale(0.015625)"/>
      <path id="DejaVuSans-6f" d="M 1959 3097 
Q 1497 3097 1228 2736 
Q 959 2375 959 1747 
Q 959 1119 1226 758 
Q 1494 397 1959 397 
Q 2419 397 2687 759 
Q 2956 1122 2956 1747 
Q 2956 2369 2687 2733 
Q 2419 3097 1959 3097 
z
M 1959 3584 
Q 2709 3584 3137 3096 
Q 3566 2609 3566 1747 
Q 3566 888 3137 398 
Q 2709 -91 1959 -91 
Q 1206 -91 779 398 
Q 353 888 353 1747 
Q 353 2609 779 3096 
Q 1206 3584 1959 3584 
z
" transform="scale(0.015625)"/>
      <path id="DejaVuSans-6e" d="M 3513 2113 
L 3513 0 
L 2938 0 
L 2938 2094 
Q 2938 2591 2744 2837 
Q 2550 3084 2163 3084 
Q 1697 3084 1428 2787 
Q 1159 2491 1159 1978 
L 1159 0 
L 581 0 
L 581 3500 
L 1159 3500 
L 1159 2956 
Q 1366 3272 1645 3428 
Q 1925 3584 2291 3584 
Q 2894 3584 3203 3211 
Q 3513 2838 3513 2113 
z
" transform="scale(0.015625)"/>
      <path id="DejaVuSans-73" d="M 2834 3397 
L 2834 2853 
Q 2591 2978 2328 3040 
Q 2066 3103 1784 3103 
Q 1356 3103 1142 2972 
Q 928 2841 928 2578 
Q 928 2378 1081 2264 
Q 1234 2150 1697 2047 
L 1894 2003 
Q 2506 1872 2764 1633 
Q 3022 1394 3022 966 
Q 3022 478 2636 193 
Q 2250 -91 1575 -91 
Q 1294 -91 989 -36 
Q 684 19 347 128 
L 347 722 
Q 666 556 975 473 
Q 1284 391 1588 391 
Q 1994 391 2212 530 
Q 2431 669 2431 922 
Q 2431 1156 2273 1281 
Q 2116 1406 1581 1522 
L 1381 1569 
Q 847 1681 609 1914 
Q 372 2147 372 2553 
Q 372 3047 722 3315 
Q 1072 3584 1716 3584 
Q 2034 3584 2315 3537 
Q 2597 3491 2834 3397 
z
" transform="scale(0.015625)"/>
     </defs>
     <use xlink:href="#DejaVuSans-61"/>
     <use xlink:href="#DejaVuSans-63" x="61.279297"/>
     <use xlink:href="#DejaVuSans-74" x="116.259766"/>
     <use xlink:href="#DejaVuSans-69" x="155.46875"/>
     <use xlink:href="#DejaVuSans-6f" x="183.251953"/>
     <use xlink:href="#DejaVuSans-6e" x="244.433594"/>
     <use xlink:href="#DejaVuSans-73" x="307.8125"/>
    </g>
   </g>
  </g>
 </g>
 <defs>
  <clipPath id="pa893fb84b7">
   <rect x="33.2875" y="22.318125" width="1116" height="554.4"/>
  </clipPath>
 </defs>
</svg>
